<mxfile host="app.diagrams.net" agent="Mozilla/5.0 (Windows NT 10.0; Win64; x64) AppleWebKit/537.36 (KHTML, like Gecko) Chrome/140.0.0.0 Safari/537.36" version="28.2.0">
  <diagram name="Page-1" id="HhL0WdPge0_0QsO6jh7K">
    <mxGraphModel dx="1142" dy="464" grid="1" gridSize="10" guides="1" tooltips="1" connect="1" arrows="1" fold="1" page="1" pageScale="1" pageWidth="850" pageHeight="1100" math="0" shadow="0">
      <root>
        <mxCell id="0" />
        <mxCell id="1" parent="0" />
        <mxCell id="q0mLWEDykQGB3j43HluI-23" value="" style="rounded=0;whiteSpace=wrap;html=1;" vertex="1" parent="1">
          <mxGeometry x="30" y="60" width="160" height="150" as="geometry" />
        </mxCell>
        <mxCell id="q0mLWEDykQGB3j43HluI-2" value="" style="endArrow=none;html=1;rounded=0;" edge="1" parent="1">
          <mxGeometry width="50" height="50" relative="1" as="geometry">
            <mxPoint x="200" y="520" as="sourcePoint" />
            <mxPoint x="200" as="targetPoint" />
          </mxGeometry>
        </mxCell>
        <mxCell id="q0mLWEDykQGB3j43HluI-3" value="Stack" style="text;html=1;align=center;verticalAlign=middle;resizable=0;points=[];autosize=1;strokeColor=none;fillColor=none;" vertex="1" parent="1">
          <mxGeometry x="10" y="10" width="50" height="30" as="geometry" />
        </mxCell>
        <mxCell id="q0mLWEDykQGB3j43HluI-19" value="&lt;font style=&quot;font-size: 8px;&quot;&gt;HeapSpace[MAX]&amp;nbsp;H&lt;/font&gt;" style="text;html=1;align=left;verticalAlign=middle;whiteSpace=wrap;rounded=0;" vertex="1" parent="1">
          <mxGeometry x="40" y="150" width="100" height="20" as="geometry" />
        </mxCell>
        <mxCell id="q0mLWEDykQGB3j43HluI-27" value="" style="group" vertex="1" connectable="0" parent="1">
          <mxGeometry x="30" y="70" width="148" height="80" as="geometry" />
        </mxCell>
        <mxCell id="q0mLWEDykQGB3j43HluI-1" value="" style="rounded=0;whiteSpace=wrap;html=1;" vertex="1" parent="q0mLWEDykQGB3j43HluI-27">
          <mxGeometry x="8" width="140" height="80" as="geometry" />
        </mxCell>
        <mxCell id="q0mLWEDykQGB3j43HluI-12" value="" style="rounded=0;whiteSpace=wrap;html=1;" vertex="1" parent="q0mLWEDykQGB3j43HluI-27">
          <mxGeometry x="40" y="10" width="100" height="60" as="geometry" />
        </mxCell>
        <mxCell id="q0mLWEDykQGB3j43HluI-6" value="elem" style="text;html=1;align=center;verticalAlign=middle;resizable=0;points=[];autosize=1;strokeColor=none;fillColor=none;" vertex="1" parent="q0mLWEDykQGB3j43HluI-27">
          <mxGeometry y="10" width="50" height="30" as="geometry" />
        </mxCell>
        <mxCell id="q0mLWEDykQGB3j43HluI-7" value="next" style="text;html=1;align=center;verticalAlign=middle;resizable=0;points=[];autosize=1;strokeColor=none;fillColor=none;" vertex="1" parent="q0mLWEDykQGB3j43HluI-27">
          <mxGeometry y="40" width="50" height="30" as="geometry" />
        </mxCell>
        <mxCell id="q0mLWEDykQGB3j43HluI-13" value="" style="endArrow=none;html=1;rounded=0;exitX=1;exitY=0.5;exitDx=0;exitDy=0;entryX=0;entryY=0.5;entryDx=0;entryDy=0;" edge="1" source="q0mLWEDykQGB3j43HluI-12" target="q0mLWEDykQGB3j43HluI-12" parent="q0mLWEDykQGB3j43HluI-27">
          <mxGeometry width="50" height="50" relative="1" as="geometry">
            <mxPoint x="-38" y="90" as="sourcePoint" />
            <mxPoint x="17" y="-10" as="targetPoint" />
          </mxGeometry>
        </mxCell>
        <mxCell id="q0mLWEDykQGB3j43HluI-22" value="" style="endArrow=none;html=1;rounded=0;exitX=0.25;exitY=1;exitDx=0;exitDy=0;entryX=0.25;entryY=0;entryDx=0;entryDy=0;" edge="1" parent="q0mLWEDykQGB3j43HluI-27" source="q0mLWEDykQGB3j43HluI-12" target="q0mLWEDykQGB3j43HluI-12">
          <mxGeometry width="50" height="50" relative="1" as="geometry">
            <mxPoint x="65" y="70" as="sourcePoint" />
            <mxPoint x="5" y="110" as="targetPoint" />
          </mxGeometry>
        </mxCell>
        <mxCell id="q0mLWEDykQGB3j43HluI-15" value="" style="endArrow=none;html=1;rounded=0;entryX=0.5;entryY=0;entryDx=0;entryDy=0;exitX=0.5;exitY=1;exitDx=0;exitDy=0;" edge="1" source="q0mLWEDykQGB3j43HluI-12" target="q0mLWEDykQGB3j43HluI-12" parent="q0mLWEDykQGB3j43HluI-27">
          <mxGeometry width="50" height="50" relative="1" as="geometry">
            <mxPoint x="72" y="190" as="sourcePoint" />
            <mxPoint x="72" y="70" as="targetPoint" />
          </mxGeometry>
        </mxCell>
        <mxCell id="q0mLWEDykQGB3j43HluI-16" value="" style="endArrow=none;html=1;rounded=0;entryX=0.75;entryY=0;entryDx=0;entryDy=0;exitX=0.75;exitY=1;exitDx=0;exitDy=0;" edge="1" source="q0mLWEDykQGB3j43HluI-12" target="q0mLWEDykQGB3j43HluI-12" parent="q0mLWEDykQGB3j43HluI-27">
          <mxGeometry width="50" height="50" relative="1" as="geometry">
            <mxPoint x="105" y="170" as="sourcePoint" />
            <mxPoint x="105" y="50" as="targetPoint" />
          </mxGeometry>
        </mxCell>
        <mxCell id="q0mLWEDykQGB3j43HluI-44" value="-1" style="text;html=1;align=center;verticalAlign=middle;whiteSpace=wrap;rounded=0;" vertex="1" parent="q0mLWEDykQGB3j43HluI-27">
          <mxGeometry x="40" y="40" width="20" height="30" as="geometry" />
        </mxCell>
        <mxCell id="q0mLWEDykQGB3j43HluI-55" value="0" style="text;html=1;align=center;verticalAlign=middle;whiteSpace=wrap;rounded=0;" vertex="1" parent="q0mLWEDykQGB3j43HluI-27">
          <mxGeometry x="64" y="40" width="20" height="30" as="geometry" />
        </mxCell>
        <mxCell id="q0mLWEDykQGB3j43HluI-56" value="1" style="text;html=1;align=center;verticalAlign=middle;whiteSpace=wrap;rounded=0;" vertex="1" parent="q0mLWEDykQGB3j43HluI-27">
          <mxGeometry x="90" y="40" width="20" height="30" as="geometry" />
        </mxCell>
        <mxCell id="q0mLWEDykQGB3j43HluI-57" value="-1" style="text;html=1;align=center;verticalAlign=middle;whiteSpace=wrap;rounded=0;" vertex="1" parent="q0mLWEDykQGB3j43HluI-27">
          <mxGeometry x="120" y="40" width="20" height="30" as="geometry" />
        </mxCell>
        <mxCell id="q0mLWEDykQGB3j43HluI-61" value="10" style="text;html=1;align=center;verticalAlign=middle;whiteSpace=wrap;rounded=0;" vertex="1" parent="q0mLWEDykQGB3j43HluI-27">
          <mxGeometry x="40" y="10" width="20" height="30" as="geometry" />
        </mxCell>
        <mxCell id="q0mLWEDykQGB3j43HluI-65" value="20" style="text;html=1;align=center;verticalAlign=middle;whiteSpace=wrap;rounded=0;" vertex="1" parent="q0mLWEDykQGB3j43HluI-27">
          <mxGeometry x="64" y="10" width="20" height="30" as="geometry" />
        </mxCell>
        <mxCell id="q0mLWEDykQGB3j43HluI-66" value="30" style="text;html=1;align=center;verticalAlign=middle;whiteSpace=wrap;rounded=0;" vertex="1" parent="q0mLWEDykQGB3j43HluI-27">
          <mxGeometry x="90" y="10" width="20" height="30" as="geometry" />
        </mxCell>
        <mxCell id="q0mLWEDykQGB3j43HluI-28" value="3" style="rounded=0;whiteSpace=wrap;html=1;" vertex="1" parent="1">
          <mxGeometry x="40" y="170" width="20" height="20" as="geometry" />
        </mxCell>
        <mxCell id="q0mLWEDykQGB3j43HluI-29" value="&lt;font style=&quot;font-size: 8px;&quot;&gt;int avail&lt;/font&gt;" style="text;html=1;align=left;verticalAlign=middle;whiteSpace=wrap;rounded=0;" vertex="1" parent="1">
          <mxGeometry x="60" y="170" width="100" height="20" as="geometry" />
        </mxCell>
        <mxCell id="q0mLWEDykQGB3j43HluI-30" value="" style="endArrow=none;html=1;rounded=0;" edge="1" parent="1">
          <mxGeometry width="50" height="50" relative="1" as="geometry">
            <mxPoint x="400" y="520" as="sourcePoint" />
            <mxPoint x="400" as="targetPoint" />
          </mxGeometry>
        </mxCell>
        <mxCell id="q0mLWEDykQGB3j43HluI-31" value="" style="endArrow=none;html=1;rounded=0;" edge="1" parent="1">
          <mxGeometry width="50" height="50" relative="1" as="geometry">
            <mxPoint x="200" y="240" as="sourcePoint" />
            <mxPoint x="560" y="240" as="targetPoint" />
          </mxGeometry>
        </mxCell>
        <mxCell id="q0mLWEDykQGB3j43HluI-32" value="2" style="rounded=0;whiteSpace=wrap;html=1;" vertex="1" parent="1">
          <mxGeometry x="240" y="280" width="20" height="20" as="geometry" />
        </mxCell>
        <mxCell id="q0mLWEDykQGB3j43HluI-67" style="edgeStyle=orthogonalEdgeStyle;rounded=0;orthogonalLoop=1;jettySize=auto;html=1;entryX=0.5;entryY=1;entryDx=0;entryDy=0;" edge="1" parent="1" source="q0mLWEDykQGB3j43HluI-34" target="q0mLWEDykQGB3j43HluI-23">
          <mxGeometry relative="1" as="geometry">
            <mxPoint x="100" y="240" as="targetPoint" />
            <Array as="points">
              <mxPoint x="290" y="230" />
              <mxPoint x="110" y="230" />
            </Array>
          </mxGeometry>
        </mxCell>
        <mxCell id="q0mLWEDykQGB3j43HluI-34" value="" style="rounded=0;whiteSpace=wrap;html=1;" vertex="1" parent="1">
          <mxGeometry x="280" y="280" width="20" height="20" as="geometry" />
        </mxCell>
        <mxCell id="q0mLWEDykQGB3j43HluI-35" value="30" style="rounded=0;whiteSpace=wrap;html=1;" vertex="1" parent="1">
          <mxGeometry x="320" y="280" width="20" height="20" as="geometry" />
        </mxCell>
        <mxCell id="q0mLWEDykQGB3j43HluI-36" value="V" style="text;html=1;align=center;verticalAlign=middle;whiteSpace=wrap;rounded=0;" vertex="1" parent="1">
          <mxGeometry x="275" y="300" width="30" height="30" as="geometry" />
        </mxCell>
        <mxCell id="q0mLWEDykQGB3j43HluI-37" value="L" style="text;html=1;align=center;verticalAlign=middle;whiteSpace=wrap;rounded=0;" vertex="1" parent="1">
          <mxGeometry x="235" y="300" width="30" height="30" as="geometry" />
        </mxCell>
        <mxCell id="q0mLWEDykQGB3j43HluI-38" value="elem" style="text;html=1;align=center;verticalAlign=middle;whiteSpace=wrap;rounded=0;" vertex="1" parent="1">
          <mxGeometry x="315" y="300" width="30" height="30" as="geometry" />
        </mxCell>
        <mxCell id="q0mLWEDykQGB3j43HluI-58" value="&lt;div&gt;&lt;span style=&quot;font-size: 10px;&quot;&gt;void insertFirst(int *L, VHeap *V, int elem){&lt;/span&gt;&lt;/div&gt;&lt;div&gt;&lt;span style=&quot;font-size: 10px;&quot;&gt;&amp;nbsp; &amp;nbsp; int newCell = allocSpace(V);&lt;/span&gt;&lt;/div&gt;&lt;div&gt;&lt;span style=&quot;font-size: 10px;&quot;&gt;&amp;nbsp; &amp;nbsp; if(newCell != -1){&lt;/span&gt;&lt;/div&gt;&lt;div&gt;&lt;span style=&quot;font-size: 10px;&quot;&gt;&amp;nbsp; &amp;nbsp; &amp;nbsp; &amp;nbsp; V-&amp;gt;H[newCell].elem = elem;&lt;/span&gt;&lt;/div&gt;&lt;div&gt;&lt;span style=&quot;font-size: 10px;&quot;&gt;&amp;nbsp; &amp;nbsp; &amp;nbsp; &amp;nbsp; V-&amp;gt;H[newCell].next = *L;&lt;/span&gt;&lt;/div&gt;&lt;div&gt;&lt;span style=&quot;font-size: 10px;&quot;&gt;&amp;nbsp; &amp;nbsp; }&lt;/span&gt;&lt;/div&gt;&lt;div&gt;&lt;span style=&quot;font-size: 10px;&quot;&gt;&amp;nbsp; &amp;nbsp; *L = newCell;&lt;/span&gt;&lt;/div&gt;&lt;div&gt;&lt;span style=&quot;font-size: 10px;&quot;&gt;}&lt;/span&gt;&lt;/div&gt;" style="text;html=1;align=left;verticalAlign=middle;whiteSpace=wrap;rounded=0;" vertex="1" parent="1">
          <mxGeometry x="410" y="50" width="200" height="110" as="geometry" />
        </mxCell>
        <mxCell id="q0mLWEDykQGB3j43HluI-59" value="2" style="rounded=0;whiteSpace=wrap;html=1;" vertex="1" parent="1">
          <mxGeometry x="240" y="140" width="20" height="20" as="geometry" />
        </mxCell>
        <mxCell id="q0mLWEDykQGB3j43HluI-60" value="&lt;font style=&quot;font-size: 8px;&quot;&gt;int newCell = allocSpace(V);&lt;/font&gt;" style="text;html=1;align=left;verticalAlign=middle;whiteSpace=wrap;rounded=0;" vertex="1" parent="1">
          <mxGeometry x="260" y="135" width="105" height="30" as="geometry" />
        </mxCell>
        <mxCell id="q0mLWEDykQGB3j43HluI-63" style="edgeStyle=orthogonalEdgeStyle;rounded=0;orthogonalLoop=1;jettySize=auto;html=1;entryX=0.602;entryY=0.045;entryDx=0;entryDy=0;entryPerimeter=0;" edge="1" parent="1" source="q0mLWEDykQGB3j43HluI-59" target="q0mLWEDykQGB3j43HluI-12">
          <mxGeometry relative="1" as="geometry">
            <Array as="points">
              <mxPoint x="220" y="150" />
              <mxPoint x="220" y="30" />
              <mxPoint x="130" y="30" />
            </Array>
          </mxGeometry>
        </mxCell>
        <mxCell id="q0mLWEDykQGB3j43HluI-64" value="&lt;font style=&quot;font-size: 8px;&quot;&gt;To this index&lt;/font&gt;" style="edgeLabel;html=1;align=center;verticalAlign=middle;resizable=0;points=[];" vertex="1" connectable="0" parent="q0mLWEDykQGB3j43HluI-63">
          <mxGeometry x="0.1177" y="-2" relative="1" as="geometry">
            <mxPoint x="48" y="67" as="offset" />
          </mxGeometry>
        </mxCell>
        <mxCell id="q0mLWEDykQGB3j43HluI-68" value="&lt;div&gt;&lt;span style=&quot;font-size: 10px;&quot;&gt;int main(){&lt;/span&gt;&lt;/div&gt;&lt;div&gt;&lt;span style=&quot;font-size: 10px;&quot;&gt;&amp;nbsp; &amp;nbsp; List L = -1;&lt;/span&gt;&lt;/div&gt;&lt;div&gt;&lt;span style=&quot;font-size: 10px;&quot;&gt;&amp;nbsp; &amp;nbsp; VHeap V;&lt;/span&gt;&lt;/div&gt;&lt;div&gt;&lt;span style=&quot;font-size: 10px;&quot;&gt;&amp;nbsp; &amp;nbsp; initialize(&amp;amp;V);&lt;/span&gt;&lt;/div&gt;&lt;div&gt;&lt;span style=&quot;font-size: 10px;&quot;&gt;&amp;nbsp; &amp;nbsp;&amp;nbsp;&lt;/span&gt;&lt;/div&gt;&lt;div&gt;&lt;span style=&quot;font-size: 10px;&quot;&gt;&amp;nbsp; &amp;nbsp;&amp;nbsp;&lt;/span&gt;&lt;span style=&quot;font-size: 10px;&quot;&gt;insertFirst&lt;/span&gt;&lt;span style=&quot;font-size: 10px;&quot;&gt;(&amp;amp;L, &amp;amp;V, 10);&lt;/span&gt;&lt;/div&gt;&lt;div&gt;&lt;span style=&quot;font-size: 10px;&quot;&gt;&amp;nbsp; &amp;nbsp;&amp;nbsp;&lt;/span&gt;&lt;span style=&quot;font-size: 10px;&quot;&gt;insertFirst&lt;/span&gt;&lt;span style=&quot;font-size: 10px;&quot;&gt;(&amp;amp;L, &amp;amp;V, 20);&lt;/span&gt;&lt;/div&gt;&lt;div&gt;&lt;span style=&quot;font-size: 10px;&quot;&gt;&amp;nbsp; &amp;nbsp;&amp;nbsp;&lt;/span&gt;&lt;span style=&quot;font-size: 10px;&quot;&gt;insertFirst&lt;/span&gt;&lt;span style=&quot;font-size: 10px;&quot;&gt;(&amp;amp;L, &amp;amp;V, 30);&lt;/span&gt;&lt;/div&gt;&lt;div&gt;&lt;span style=&quot;font-size: 10px;&quot;&gt;}&lt;/span&gt;&lt;/div&gt;" style="text;html=1;align=left;verticalAlign=middle;whiteSpace=wrap;rounded=0;" vertex="1" parent="1">
          <mxGeometry x="410" y="270" width="200" height="170" as="geometry" />
        </mxCell>
      </root>
    </mxGraphModel>
  </diagram>
</mxfile>
